<svg xmlns="http://www.w3.org/2000/svg" width="1240" height="800" viewBox="0 0 1240 800" role="img" aria-labelledby="title desc">
  <title id="title">Airline Ops ontology relationship map</title>
  <desc id="desc">Visual map of Airline, Flight, Route, Airport, DelayEvent, PassengerCarePolicy, and RegulatoryReference and the join fields linking them in the Airline Ops sample ontology.</desc>
  <defs>
    <style>
      .heading { font: 800 30px "Segoe UI", Arial, sans-serif; fill: #0f172a; }
      .sub { font: 15px "Segoe UI", Arial, sans-serif; fill: #64748b; }
      .node-title { font: 700 19px "Segoe UI", Arial, sans-serif; fill: #0f172a; }
      .key { font: 12px "SFMono-Regular", Consolas, monospace; fill: #475569; }
      .keypill { fill: #f1f5f9; stroke: #cbd5e1; stroke-width: 1; }
      .edge { fill: none; stroke: #94a3b8; stroke-width: 2.6; stroke-linecap: round; stroke-linejoin: round; }
      .edge-sem { fill: none; stroke: #a78bfa; stroke-width: 2.6; stroke-dasharray: 7 6; stroke-linecap: round; }
      .arrow { fill: #94a3b8; } .arrow-sem { fill: #a78bfa; }
      .elabel { fill: #ffffff; stroke: #e2e8f0; stroke-width: 1.2; }
      .etext { font: 600 12px "Segoe UI", Arial, sans-serif; fill: #334155; }
      .efield { font: 11px "SFMono-Regular", Consolas, monospace; fill: #7c3aed; }
      .card { fill: #ffffff; stroke: #e2e8f0; stroke-width: 1.4; }
      .leg { font: 13px "Segoe UI", Arial, sans-serif; fill: #475569; }
    </style>
    <filter id="sh" x="-20%" y="-20%" width="140%" height="140%">
      <feDropShadow dx="0" dy="3" stdDeviation="5" flood-color="#0f172a" flood-opacity="0.12"/>
    </filter>
  </defs>

  <rect x="0" y="0" width="1240" height="800" fill="#ffffff"/>
  <text class="heading" x="48" y="56">Airline Ops Ontology Relationship Map</text>
  <text class="sub" x="48" y="84">Domain example for Fabric Ontology Knowledge Source demos - nodes join on the labelled key fields</text>

  <!-- ===== Operational core nodes (indigo) ===== -->
  <g filter="url(#sh)">
    <rect class="card" x="60" y="300" width="200" height="96" rx="14"/>
    <rect x="60" y="300" width="6" height="96" rx="3" fill="#2563eb"/>
    <text class="node-title" x="160" y="338" text-anchor="middle">Airline</text>
    <rect class="keypill" x="92" y="352" width="136" height="24" rx="12"/>
    <text class="key" x="160" y="368" text-anchor="middle">key: airline_code</text>
  </g>
  <g filter="url(#sh)">
    <rect class="card" x="340" y="300" width="200" height="96" rx="14"/>
    <rect x="340" y="300" width="6" height="96" rx="3" fill="#2563eb"/>
    <text class="node-title" x="440" y="338" text-anchor="middle">Flight</text>
    <rect class="keypill" x="384" y="352" width="112" height="24" rx="12"/>
    <text class="key" x="440" y="368" text-anchor="middle">key: flight_id</text>
  </g>
  <g filter="url(#sh)">
    <rect class="card" x="620" y="150" width="200" height="96" rx="14"/>
    <rect x="620" y="150" width="6" height="96" rx="3" fill="#2563eb"/>
    <text class="node-title" x="720" y="188" text-anchor="middle">Route</text>
    <rect class="keypill" x="660" y="202" width="120" height="24" rx="12"/>
    <text class="key" x="720" y="218" text-anchor="middle">key: route_id</text>
  </g>
  <g filter="url(#sh)">
    <rect class="card" x="980" y="150" width="200" height="96" rx="14"/>
    <rect x="980" y="150" width="6" height="96" rx="3" fill="#2563eb"/>
    <text class="node-title" x="1080" y="188" text-anchor="middle">Airport</text>
    <rect class="keypill" x="1018" y="202" width="124" height="24" rx="12"/>
    <text class="key" x="1080" y="218" text-anchor="middle">key: airport_code</text>
  </g>

  <!-- ===== Disruption node (amber) ===== -->
  <g filter="url(#sh)">
    <rect class="card" x="620" y="470" width="200" height="96" rx="14"/>
    <rect x="620" y="470" width="6" height="96" rx="3" fill="#d97706"/>
    <text class="node-title" x="720" y="508" text-anchor="middle">DelayEvent</text>
    <rect class="keypill" x="650" y="522" width="140" height="24" rx="12"/>
    <text class="key" x="720" y="538" text-anchor="middle">key: delay_event_id</text>
  </g>

  <!-- ===== Governance nodes (green / blue) ===== -->
  <g filter="url(#sh)">
    <rect class="card" x="980" y="400" width="210" height="96" rx="14"/>
    <rect x="980" y="400" width="6" height="96" rx="3" fill="#16a34a"/>
    <text class="node-title" x="1085" y="438" text-anchor="middle">PassengerCarePolicy</text>
    <rect class="keypill" x="1029" y="452" width="112" height="24" rx="12"/>
    <text class="key" x="1085" y="468" text-anchor="middle">key: policy_id</text>
  </g>
  <g filter="url(#sh)">
    <rect class="card" x="980" y="560" width="210" height="96" rx="14"/>
    <rect x="980" y="560" width="6" height="96" rx="3" fill="#0ea5e9"/>
    <text class="node-title" x="1085" y="598" text-anchor="middle">RegulatoryReference</text>
    <rect class="keypill" x="1030" y="612" width="110" height="24" rx="12"/>
    <text class="key" x="1085" y="628" text-anchor="middle">key: reference_id</text>
  </g>

  <!-- ===== edges ===== -->
  <path class="edge" d="M260,348 L326,348"/>
  <polygon class="arrow" points="340,348 326,341 326,355"/>
  <rect class="elabel" x="262" y="318" width="74" height="26" rx="8"/>
  <text class="etext" x="299" y="335" text-anchor="middle">operates</text>

  <path class="edge" d="M540,322 L580,322 L580,198 L606,198"/>
  <polygon class="arrow" points="620,198 606,191 606,205"/>
  <rect class="elabel" x="544" y="244" width="74" height="26" rx="8"/>
  <text class="efield" x="581" y="261" text-anchor="middle">route_id</text>

  <path class="edge" d="M820,180 L966,180"/>
  <polygon class="arrow" points="980,180 966,173 966,187"/>
  <rect class="elabel" x="838" y="150" width="124" height="26" rx="8"/>
  <text class="efield" x="900" y="167" text-anchor="middle">origin_airport</text>

  <path class="edge" d="M820,216 L966,216"/>
  <polygon class="arrow" points="980,216 966,209 966,223"/>
  <rect class="elabel" x="826" y="232" width="148" height="26" rx="8"/>
  <text class="efield" x="900" y="249" text-anchor="middle">destination_airport</text>

  <path class="edge" d="M540,374 L580,374 L580,512 L606,512"/>
  <polygon class="arrow" points="620,512 606,505 606,519"/>
  <rect class="elabel" x="544" y="430" width="74" height="26" rx="8"/>
  <text class="efield" x="581" y="447" text-anchor="middle">flight_id</text>

  <path class="edge-sem" d="M820,500 L876,500 L876,448 L966,448"/>
  <polygon class="arrow-sem" points="980,448 966,441 966,455"/>
  <rect class="elabel" x="828" y="408" width="124" height="26" rx="8"/>
  <text class="efield" x="890" y="425" text-anchor="middle">delay_category</text>

  <path class="edge-sem" d="M820,536 L876,536 L876,608 L966,608"/>
  <polygon class="arrow-sem" points="980,608 966,601 966,615"/>
  <rect class="elabel" x="828" y="630" width="124" height="26" rx="8"/>
  <text class="efield" x="890" y="647" text-anchor="middle">delay_category</text>

  <!-- ===== legend ===== -->
  <rect x="48" y="700" width="1144" height="64" rx="12" fill="#f8fafc" stroke="#e2e8f0" stroke-width="1.2"/>
  <rect x="70" y="724" width="16" height="16" rx="4" fill="#2563eb"/><text class="leg" x="94" y="737">Operational core</text>
  <rect x="230" y="724" width="16" height="16" rx="4" fill="#d97706"/><text class="leg" x="254" y="737">Disruption</text>
  <rect x="356" y="724" width="16" height="16" rx="4" fill="#16a34a"/><text class="leg" x="380" y="737">Care policy</text>
  <rect x="486" y="724" width="16" height="16" rx="4" fill="#0ea5e9"/><text class="leg" x="510" y="737">Regulatory</text>
  <line x1="640" y1="732" x2="690" y2="732" stroke="#94a3b8" stroke-width="2.6"/><text class="leg" x="700" y="737">Key relationship</text>
  <line x1="860" y1="732" x2="910" y2="732" stroke="#a78bfa" stroke-width="2.6" stroke-dasharray="7 6"/><text class="leg" x="920" y="737">Semantic join (delay_category)</text>
</svg>
